{
    "asset": {
        "version": "1.0",
        "generator": "Open Asset Import Library (assimp v4.1.0)"
    },
    "accessors": {
        "Body1_mesh_accessor": {
            "bufferView": "Body1_mesh_view",
            "byteOffset": 0,
            "byteStride": 0,
            "componentType": 5126,
            "count": 34776,
            "type": "VEC3",
            "max": [
                2.0,
                2.0,
                1.100000023841858
            ],
            "min": [
                -2.0,
                -2.0,
                0.0
            ]
        },
        "Body1_mesh_accessor_0": {
            "bufferView": "Body1_mesh_view_0",
            "byteOffset": 0,
            "byteStride": 0,
            "componentType": 5126,
            "count": 34776,
            "type": "VEC3",
            "max": [
                1.0,
                1.0,
                1.0
            ],
            "min": [
                -1.0,
                -1.0,
                -1.0
            ]
        },
        "Body1_mesh_accessor_1": {
            "bufferView": "Body1_mesh_view_1",
            "byteOffset": 0,
            "byteStride": 0,
            "componentType": 5126,
            "count": 34776,
            "type": "VEC2",
            "max": [
                3.9700000286102297,
                6.615537643432617
            ],
            "min": [
                -4.0,
                -4.615537643432617
            ]
        },
        "Body1_mesh_accessor_2": {
            "bufferView": "Body1_mesh_view_2",
            "byteOffset": 0,
            "byteStride": 0,
            "componentType": 5123,
            "count": 104550,
            "type": "SCALAR",
            "max": [
                34775.0
            ],
            "min": [
                0.0
            ]
        }
    },
    "buffers": {
        "../../download/aftpei5w51ch/aftpei5w51ch": {
            "byteLength": 1321932,
            "type": "arraybuffer",
            "uri": "../../download/aftpei5w51ch/aftpei5w51ch.bin"
        }
    },
    "bufferViews": {
        "Body1_mesh_view": {
            "buffer": "../../download/aftpei5w51ch/aftpei5w51ch",
            "byteOffset": 0,
            "byteLength": 417312,
            "target": 34962
        },
        "Body1_mesh_view_0": {
            "buffer": "../../download/aftpei5w51ch/aftpei5w51ch",
            "byteOffset": 417312,
            "byteLength": 417312,
            "target": 34962
        },
        "Body1_mesh_view_1": {
            "buffer": "../../download/aftpei5w51ch/aftpei5w51ch",
            "byteOffset": 834624,
            "byteLength": 278208,
            "target": 34962
        },
        "Body1_mesh_view_2": {
            "buffer": "../../download/aftpei5w51ch/aftpei5w51ch",
            "byteOffset": 1112832,
            "byteLength": 209100,
            "target": 34963
        }
    },
    "materials": {
        "Steel - Satin": {
            "values": {
                "ambient": [
                    0.20000000298023225,
                    0.20000000298023225,
                    0.20000000298023225,
                    1.0
                ],
                "diffuse": [
                    0.6274510025978088,
                    0.6274510025978088,
                    0.6274510025978088,
                    1.0
                ],
                "specular": [
                    0.20000000298023225,
                    0.20000000298023225,
                    0.20000000298023225,
                    1.0
                ],
                "emission": [
                    0.0,
                    0.0,
                    0.0,
                    1.0
                ],
                "shininess": 20.0
            }
        }
    },
    "meshes": {
        "Body1_mesh": {
            "name": "",
            "primitives": [
                {
                    "mode": 4,
                    "material": "Steel - Satin",
                    "indices": "Body1_mesh_accessor_2",
                    "attributes": {
                        "POSITION": "Body1_mesh_accessor",
                        "NORMAL": "Body1_mesh_accessor_0",
                        "TEXCOORD_0": "Body1_mesh_accessor_1"
                    }
                }
            ]
        }
    },
    "nodes": {
        "RootNode": {
            "children": [
                "piece-test-1 v4"
            ]
        },
        "piece-test-1 v4": {
            "children": [
                "Body1"
            ]
        },
        "Body1": {
            "matrix": [
                10.0,
                0.0,
                0.0,
                0.0,
                0.0,
                10.0,
                0.0,
                0.0,
                0.0,
                0.0,
                10.0,
                0.0,
                0.0,
                0.0,
                0.0,
                1.0
            ],
            "meshes": [
                "Body1_mesh"
            ]
        }
    },
    "scenes": {
        "defaultScene": {
            "nodes": [
                "RootNode"
            ]
        }
    },
    "scene": "defaultScene"
}